<?xml version="1.0" encoding="UTF-8"?>
<svg id="Layer_2" data-name="Layer 2" xmlns="http://www.w3.org/2000/svg" viewBox="0 0 198.66 680.27">
  <defs>
    <style>
      .cls-1 {
        stroke-width: 0px;
      }
    </style>
  </defs>
  <g id="Layer_1-2" data-name="Layer 1">
    <path class="cls-1" d="m198.66,647.66c-4.27.42-8.13,1.99-11.28,4.86-2.46,2.24-5.31,2.97-8.41,3.31-.5.05-1,0-1.5.08-1.53.22-3.63,1.25-4.41.05-.71-1.1,1.08-2.75,1.62-4.22.33-.9,1.43-1.77.83-2.71-.72-1.14-2.17-.8-3.26-.62-2.79.46-5.53,1.17-8.3,1.69-4.02.76-7.15-.86-9.7-3.85-.88-1.04-.59-1.54.74-1.78,1.71-.31,3.44-.67,5.08-1.24,6.83-2.39,9.29-8.14,10.31-14.52,2.54-15.87,4.75-31.8,7.12-47.7,2.44-16.39,5.11-32.76,7.32-49.18,1.35-10.06,3.45-20.04,3.76-30.24.28-9.07-1.96-17.52-5.7-25.64-2.94-6.39-6.6-12.37-10.8-17.99-3.56-4.76-5.93-10.05-7.4-15.75-2.23-8.71-4.48-17.43-6.37-26.23-1.56-7.23-1.17-14.62-.46-21.93.74-7.63,1.88-15.21,2.49-22.85.24-3.03-.39-6.2-2.15-8.87-8.23-12.45-17.94-23.44-30.96-31.1-3.38-1.99-6.87-3.78-10.56-5.12-5.87-2.13-7.45-7.26-9.4-12.83,1.72.77,2.11,2.06,2.9,2.94,3.43,3.82,7.92,5.76,12.65,7.22,4.44,1.37,8.93,2.59,13.89,4.02-1.1-2.09-2.01-3.89-2.98-5.65-1.2-2.2-2.45-4.36-3.67-6.55-.5-.9-.99-1.89.14-2.66,1.18-.81,1.54.35,2.1,1.01,1.41,1.65,2.84,3.28,4.25,4.92,1.69,1.98,3,4.14,3.85,6.65,2.04,6.04,5.59,11.18,9.98,15.72,4.41,4.56,8.9,9.05,13.45,13.48,4.76,4.64,6.22,10.08,5.19,16.64-1.09,6.99-1.56,14.07-2.25,21.12-.38,3.9-.76,7.8-.92,11.71-.25,5.97,1.47,11.5,4.31,17.18.7-2.63-.35-4.78-.21-6.97.08-1.24.05-2.42,1.6-2.64,1.62-.23,1.54,1.13,1.86,2.12.61,1.91,1.27,3.8,1.87,5.71.95,3,1.15,5.96.33,9.09-1.35,5.11-1.69,10.24,1.56,14.92.43.61.86,1.26,1.43,1.73,3.77,3.06,6.98,6.61,9.59,10.8-.56-4.62-1.14-9.18-1.46-13.77-.4-5.68-.37-11.36-.04-17.03.11-1.83.21-3.66.25-5.49.09-4,.4-8.02.4-12,0-9.92-.4-19.86-3.86-29.35-.5-1.38-.34-2.68.13-3.9,1.33-3.48,1.02-6.68-.54-10.11-4.35-9.57-8.3-19.34-14.37-28.01-9.68-13.83-20.03-27.14-32.34-38.73-11.25-10.6-23.42-20.05-36.96-27.59-6.13-3.41-12.79-5.06-19.84-5.29-4.46-.15-8.63-1.73-12.68-3.53-3.65-1.62-7.28-3.31-10.91-4.98-2.85-1.31-4.61-3.68-6.29-6.44,1.39-.34,2.44.19,3.5.5,4.95,1.44,9.9,2.91,14.83,4.4,1.44.43,2.65.65,3.72-.87.97-1.39.79-2.39-.06-3.79-3.53-5.86-6.88-11.82-10.34-17.72-.64-1.1-.87-1.87.45-2.67,1.28-.77,1.77-.05,2.38.84,4.04,5.93,7.83,12.01,12.28,17.66,3.74,4.74,8.48,7.96,14.12,9.88,3.86,1.31,7.75,2.53,11.65,3.73,2.57.79,2.57.71,2.27-1.97-.75-6.72-1.84-13.37-3.41-19.94-2.02-8.48-5.46-16.29-10.92-23.11-3.89-4.86-4.12-10-1.5-15.45,1.01-2.11,1.98-4.23,2.51-6.52,1.24-5.38-.07-8.78-4.73-11.71-1.24-.78-1.71-1.4-.77-2.71,2.4-3.37,1.97-6.87.49-10.47-1.45-3.53-3.5-6.84-4.09-10.71-.24-1.6-.31-3.13.63-4.51.84-.03,1.01.64,1.23,1.13,3.77,8.54,8.23,16.78,11.07,25.73,2.56,8.05,3.09,16.21,1.13,24.43-.67,2.8-.05,5.3.98,7.77,3.37,8.11,7.97,15.59,12.31,23.19,5,8.76,9.95,17.59,16.21,25.54,2.46,3.13,5.12,6.11,7.96,9.47,1.18-2.9,1.13-5.56,1.51-8.13,1.28-8.57,2.76-17.12,2.79-25.82.04-11.02-2.77-21.19-9.54-29.96-5.1-6.61-7.7-14.21-9.38-22.16-4.16-19.7-15.01-34.53-32.17-44.68-5.97-3.53-12.92-4.79-19.53-6.78-1.83-.55-3.76-.9-5.47-1.71-4.54-2.16-8.89-1.49-13.27.42-1.6.7-3.25,1.29-4.88,1.92-.47.18-1.02.43-1.4-.01-.42-.48.02-.94.34-1.3,5.97-6.78,12.42-10.47,21.79-5.7,4.59,2.34,8.95,5.13,14.01,6.47,1.48.39,2.64.62,3.7-.87,1.07-1.49.05-2.24-.74-3.2-9.1-11.07-18.17-22.17-27.3-33.22-.98-1.19-1.33-2.03.08-3.06,1.16-.86,1.89-1.32,3.26.13,5.98,6.3,12.25,12.31,18.27,18.57,12.95,13.46,26,26.84,37.5,41.61,7.26,9.33,12.75,19.73,17.65,30.46,2.56,5.62,5.37,11.12,7.98,16.72.67,1.44,1.37,1.32,2.46.56,5.94-4.14,8.48-9.86,7.79-17.02-1.58-16.45-5.16-32.57-7.93-48.83-1.54-9.05-2.81-18.17-.64-27.32.65-2.75,1.76-5.4,2.4-8.15,1.75-7.49-.69-14.18-5.61-19.43-8.3-8.86-12.85-19.8-18.27-30.29-.62-1.2-.56-2.17.36-3.17.73-.79,1.41-1.65,2-2.56,2.93-4.55,2.64-8.75-.95-13.68-1.96-2.69-4-5.34-5.94-8.05-1.02-1.43-1.75-3.01-1.71-4.84.2-.04.42-.15.48-.09,4.9,4.75,10.25,9.09,13.42,15.36,2.12,4.19,2.45,8.6,1.84,13.17-1.23,9.12.73,17.39,7.42,23.92,3.52,3.44,7.11,6.79,10.3,10.54,1.07,1.26,1.69,1.47,2.57-.27,4-7.89,8.12-15.72,12.21-23.56.41-.78.63-1.8,1.72-1.98,1.45-.25,2.32,1.06,1.78,2.95-1.63,5.61-3.25,11.22-5.06,16.76-3.94,12.05-8.24,23.99-10.44,36.53-2.65,15.1-1.72,29.91,3.92,44.29.26.67.39,1.65,1.19,1.79.93.16,1.11-.9,1.46-1.48,8.78-14.67,17.87-29.16,26.23-44.08.73-1.31.67-2.32-.09-3.46-2.35-3.53-5.29-6.22-9.71-6.79-.74-.1-1.47-.28-2.21-.42-1.26-.24-1.59-1.02-1.28-2.19.3-1.1.94-1.4,2.06-1.18,1.59.31,3.53,1.71,4.69.63,1.11-1.03,1.23-3.17,1.71-4.84,1.8-6.33,3.61-12.66,4.7-19.17.62-3.7.21-7.31-.47-10.93-1.68-9,3.55-17.35,12.74-20.06-.26,2.23-1.29,3.97-2.73,5.48-5.6,5.89-7.61,12.53-4.66,20.43,1.71,4.58.02,9.1-1,13.51-1.13,4.87-.25,9.39,1.36,14.44.65-1.26,1.13-2.17,1.58-3.09,3.08-6.3,6.14-12.6,9.23-18.89.21-.43.6-.77.91-1.16v36.62c-3.62,7.51-7.81,14.73-11.49,22.22-4.54,9.26-11.81,16.46-18.86,23.77-1,1.04-1.53,2.03-1.57,3.48-.11,3.92-.14,7.86-.6,11.74-1.02,8.63.79,16.52,5.22,23.94,4.8,8.05,10.97,15.1,16.31,22.76.79,1.13,1.38.97,2.42.35,2.91-1.72,5.23-4.39,8.57-5.43v433.45Zm-41.66-443.61c-1.14,4.15-2.14,7.98-3.24,11.79-2.67,9.28-1.9,18.88-2.34,28.32-.52,11.09-.13,22.21-.12,33.32,0,2.16.68,3.98,2.3,5.58,6.64,6.57,13.65,12.72,20.75,18.77,3.5,2.99,3.66,2.96,4.96-1.58,3.88-13.61,5.08-27.39,2.85-41.48-2.07-13.05-6.93-25.01-13.23-36.45-3.45-6.25-7.3-12.28-11.92-18.27Z"/>
  </g>
</svg>