<?xml version="1.0" encoding="UTF-8"?>
<svg id="Layer_2" data-name="Layer 2" xmlns="http://www.w3.org/2000/svg" viewBox="0 0 198.16 680.27">
  <defs>
    <style>
      .cls-1 {
        stroke-width: 0px;
      }
    </style>
  </defs>
  <g id="Layer_1-2" data-name="Layer 1">
    <path class="cls-1" d="m1.4,75.12c3.77,7.62,7.43,15,11.21,22.64,2.34-5.55,2.49-10.89,1.04-16.33-1.24-4.67-1.5-9.2.08-13.98,2.21-6.7-.32-12.45-4.86-17.43-1.54-1.69-2.77-3.5-3.22-5.82,5.94.84,12.77,8.46,13.01,14.46.09,2.17.06,4.33-.43,6.48-1.67,7.21.46,14.06,2.16,20.93.96,3.88,2.27,7.68,3.2,11.57.41,1.71,1.2,1.95,2.65,1.51.95-.29,1.94-.48,2.9-.75,1.14-.32,1.75.16,2,1.25.24,1.02.09,1.82-1.12,2.06-1.22.24-2.44.54-3.66.78-1.93.37-3.61,1.23-5.05,2.57-4.76,4.42-4.76,5.14-1.57,10.71,7.71,13.47,15.88,26.66,23.86,39.96.51.84.88,2.27,1.77,2.23,1.17-.05,1.22-1.57,1.61-2.54,4.66-11.56,5.85-23.66,4.73-35.92-1.1-12.1-4.69-23.68-8.55-35.16-2.82-8.38-5.72-16.74-7.91-25.31-.31-1.21-.9-2.5.79-3.18,1.81-.72,2.09.87,2.63,1.89,4.11,7.84,8.17,15.69,12.26,23.54.45.86.84,2.18,2.01.67,3.9-5.03,9.16-8.75,13.12-13.7,4.82-6.03,6.26-13.16,5.14-20.56-1.18-7.83.91-14.39,6.02-20.09,2.93-3.26,6.21-6.2,9.67-9.61-.1,3.91-2.24,6.3-4.09,8.8-1.78,2.41-3.7,4.7-5.16,7.36-2.43,4.43-1.59,8.45,1.48,12.04,1.83,2.13,2.14,3.84.72,6.39-3.25,5.83-6.17,11.84-9.18,17.8-2.03,4.02-5.45,6.93-8.15,10.41-3.66,4.71-6.37,9.81-6.27,15.98.04,2.51.53,4.98,1.45,7.33,3.3,8.38,2.99,17.04,1.74,25.68-2.5,17.23-6.41,34.23-8.62,51.51-.75,5.85-.83,11.7,3.27,16.65.16.19.25.44.42.62,1.55,1.64,3.19,3.86,5.3,3.81,1.45-.03,1.89-2.86,2.67-4.48,5.1-10.51,9.73-21.25,15.66-31.34,5.18-8.82,11.52-16.74,18.26-24.39,14.74-16.73,30.47-32.51,46.06-48.42,1.44-1.47,2.15-.41,3.1.24,1.11.76,1.18,1.56.25,2.68-8.78,10.59-17.51,21.21-26.25,31.83-.58.71-1.08,1.49-1.72,2.14-.8.82-1.18,1.61-.36,2.61.75.92,1.39,1.74,2.9,1.23,4.1-1.39,8.22-2.65,11.89-5.09,2.85-1.9,5.95-3.3,9.46-3.64,6.7-.65,11.11,3.18,15.22,7.64.34.36.79.86.49,1.31-.4.6-1.04.26-1.59.05-2.65-.99-5.29-2.01-7.95-2.98-2.68-.99-5.34-.88-8.07,0-5.78,1.86-11.59,3.63-17.42,5.34-14.7,4.33-25.03,14.16-33.19,26.63-4.39,6.7-6.86,14.21-8.6,22.02-1.77,7.93-4.38,15.5-9.42,22.15-8.18,10.78-10.37,23.16-9.15,36.46.77,8.39,2.3,16.67,3.19,25.04.07.66.16,1.31.88,1.93,3.98-4.15,7.68-8.51,10.93-13.24,7.25-10.53,13.37-21.73,19.61-32.87,1.43-2.55,2.8-5.13,4.12-7.73,2.25-4.45,3.46-8.86,2.29-14.13-2.04-9.22-.35-18.29,3.26-26.92,2.86-6.85,6.03-13.57,9.09-20.33.29-.64.45-1.77,1.3-1.6.87.17.89,1.31.93,2.09.16,2.92-.86,5.57-2,8.18-.77,1.76-1.63,3.48-2.36,5.25-1.41,3.42-1.67,6.8.57,10.01.71,1.01,1.04,1.91-.42,2.6-5.62,2.65-6.46,8.31-4.35,14.2.98,2.74,2.51,5.25,3.22,8.13.95,3.87.29,7.5-2.1,10.43-8.63,10.55-12.13,23.01-14.01,36.15-.42,2.97-.81,5.94-1.31,8.89-.24,1.37.2,1.72,1.43,1.33,7.83-2.46,16.04-3.98,22.63-9.48,3.97-3.32,6.67-7.64,9.61-11.78,2.37-3.33,4.59-6.77,6.83-10.18.67-1.01,1.21-1.71,2.56-.83,1.4.91.79,1.72.22,2.71-3.4,5.84-6.7,11.74-10.2,17.51-.92,1.51-1.08,2.56,0,4,1.14,1.52,2.39,1.09,3.78.67,4.94-1.49,9.88-2.96,14.84-4.4,1-.29,2-.77,3.29-.51-1.22,2.51-2.78,4.77-5.07,5.83-7.46,3.44-14.62,7.77-22.93,8.98-3.69.54-7.46.5-11.12,1.42-8.83,2.23-16.26,7.09-23.55,12.29-10.74,7.67-21.18,15.73-30.08,25.51-13.88,15.26-27.2,30.98-35.86,50.02-1.97,4.33-3.82,8.71-5.73,13.06-.93,2.13-.59,4.28.14,6.35.8,2.3.8,4.45-.03,6.79-2.01,5.7-2.49,11.68-3.07,17.67-.8,8.36.16,16.68.22,25.02.04,4.66.36,9.34.33,14.01-.05,6.18-.61,12.32-1.84,18.38-.06.29,0,.6.18,1,2.59-4.49,6.46-7.76,9.98-11.38,4.37-4.49,4.25-10.28,2.62-15.79-1.79-6.06,1.16-11.09,2.55-16.49.19-.75.9-.94,1.64-.71.75.24,1.4.61,1.37,1.55-.06,1.42-.11,2.83-.2,4.25-.07,1.07-.19,2.14-.05,3.27,2.05-3.38,3.27-7,4.03-10.88.98-4.95.03-9.84-.23-14.71-.41-7.56-1.52-15.08-2.33-22.61-.16-1.49-.32-2.98-.5-4.47-.61-5.26,1.57-9.44,5.11-13.04,4.39-4.47,8.87-8.84,13.25-13.32,4.84-4.95,8.67-10.54,10.86-17.19,1.18-3.58,3.84-6.2,6.24-8.97.6-.69,1.18-1.4,1.77-2.1.48-.56.92-1.32,1.83-.68.82.58.89,1.34.42,2.2-1.21,2.19-2.4,4.39-3.61,6.58-1.04,1.89-2.07,3.77-3.46,6.28,10.59-3.85,22.17-4.04,29.19-14.11-1.48,5.22-2.98,10.26-8.7,12.47-15.77,6.08-27.74,16.92-37.62,30.35-2.86,3.89-5.93,7.65-6.24,12.84-.24,4.03.49,7.98,1.03,11.91,1.37,9.94,2.27,19.9,1.69,29.93-.35,6.03-2.39,11.73-3.92,17.53-1.9,7.16-2.96,14.55-5.92,21.43-1.27,2.95-3.04,5.55-4.87,8.14-7.01,9.95-13.1,20.34-15.49,32.5-1.58,8.07-.79,16.1.44,24.14,1.82,11.94,3.52,23.9,5.29,35.85,1.57,10.63,3.16,21.26,4.73,31.89,1.77,12.03,3.52,24.07,5.31,36.1.58,3.87,1.17,7.74,1.91,11.58,1.55,8.1,6.18,13.12,14.54,14.3.61.09,1.48-.16,1.71.68.2.75-.5,1.18-.94,1.65-2.64,2.82-5.75,4.02-9.67,3.24-2.93-.58-5.78-1.64-8.81-1.67-2.61-.02-2.88.42-1.8,2.7.36.75.75,1.49,1.09,2.25.4.9,1.47,1.92.96,2.69-.6.91-1.99.34-3.02.22-1.9-.22-3.77-.6-5.67-.82-1.99-.23-3.64-1.1-5.11-2.4-2.93-2.6-6.29-4.4-10.15-5.07-1.5-.26-2-.9-1.92-2.3.05-.83,0-1.67,0-2.51,0-141.55,0-283.11.03-424.66,0-1.34-.74-3.31.59-3.9,1.18-.53,2.43,1.11,3.57,1.88,1.92,1.31,3.84,3.76,5.8,3.57,2.02-.2,2.99-3.27,4.37-5.11,5.39-7.2,11.24-14.1,15.19-22.29,3.01-6.25,3.93-12.82,3.18-19.71-.43-3.97-.5-7.99-.64-11.99-.05-1.32-.38-2.33-1.33-3.34-7.92-8.42-16.16-16.54-20.83-27.53-2.47-5.82-5.83-11.26-8.81-16.85-.81-1.51-1.15-3.06-1.14-4.79.05-10.2.02-20.4.04-30.6,0-.79-.26-1.66.56-2.67Zm41.28,128.87c-3.83,5.06-7.04,9.98-10.03,15.06-10.86,18.45-17.61,37.98-16.05,59.82.6,8.37,2.23,16.47,4.62,24.47.43,1.46,1.04,1.38,2.07.44,7.25-6.64,14.81-12.91,21.86-19.78,2.28-2.22,3.26-4.59,3.25-7.72-.08-16.94.11-33.87-.95-50.8-.46-7.32-3.01-14.07-4.77-21.48Z"/>
  </g>
</svg>